<svg xmlns="http://www.w3.org/2000/svg" viewBox="0 0 256 256" width="256" height="256" role="img" aria-label="spantap app icon">
  <defs>
    <linearGradient id="bg" x1="0" y1="0" x2="1" y2="1">
      <stop offset="0" stop-color="#101a2e"/>
      <stop offset="1" stop-color="#070b14"/>
    </linearGradient>
    <linearGradient id="jack" x1="0" y1="0" x2="1" y2="1">
      <stop offset="0" stop-color="#7df9ff"/>
      <stop offset="1" stop-color="#2f7dff"/>
    </linearGradient>
    <linearGradient id="pins" x1="0" y1="1" x2="0" y2="0">
      <stop offset="0" stop-color="#1d9bff"/>
      <stop offset="1" stop-color="#7dffc0"/>
    </linearGradient>
    <filter id="soft" x="-40%" y="-40%" width="180%" height="180%">
      <feGaussianBlur stdDeviation="4" result="b"/>
      <feMerge>
        <feMergeNode in="b"/>
        <feMergeNode in="SourceGraphic"/>
      </feMerge>
    </filter>
  </defs>

  <!-- badge -->
  <rect width="256" height="256" rx="56" fill="url(#bg)"/>
  <rect x="1.5" y="1.5" width="253" height="253" rx="54.5" fill="none" stroke="#7df9ff" stroke-opacity="0.18"/>

  <!-- RJ45 jack silhouette, latch key pointing down -->
  <g filter="url(#soft)">
    <path d="M76 48 H180 A8 8 0 0 1 188 56 V134 A8 8 0 0 1 180 142 H152 V168 A6 6 0 0 1 146 174 H110 A6 6 0 0 1 104 168 V142 H76 A8 8 0 0 1 68 134 V56 A8 8 0 0 1 76 48 Z"
          fill="#0b1524" stroke="url(#jack)" stroke-width="6" stroke-linejoin="round"/>
  </g>

  <!-- contact pins that double as a traffic bar chart -->
  <g fill="url(#pins)">
    <rect x="79"  y="56" width="6" height="28" rx="3"/>
    <rect x="92"  y="56" width="6" height="44" rx="3"/>
    <rect x="106" y="56" width="6" height="20" rx="3"/>
    <rect x="119" y="56" width="6" height="52" rx="3"/>
    <rect x="133" y="56" width="6" height="36" rx="3"/>
    <rect x="146" y="56" width="6" height="58" rx="3"/>
    <rect x="160" y="56" width="6" height="26" rx="3"/>
    <rect x="173" y="56" width="6" height="42" rx="3"/>
  </g>

  <!-- pass-through link: traffic keeps flowing left to right -->
  <g stroke="#ffb347" stroke-width="6" stroke-linecap="round" fill="none">
    <path d="M20 206 H226"/>
  </g>
  <polygon points="222,196 240,206 222,216" fill="#ffb347"/>

  <!-- packets on the wire -->
  <g fill="#ffd98a">
    <rect x="38" y="200" width="11" height="12" rx="3"/>
    <rect x="62" y="200" width="11" height="12" rx="3"/>
    <rect x="86" y="200" width="11" height="12" rx="3"/>
  </g>

  <!-- tap point + mirrored copy sent up into the analysis port -->
  <circle cx="128" cy="206" r="9" fill="#070b14" stroke="#7df9ff" stroke-width="5"/>
  <path d="M128 197 V190" stroke="#7df9ff" stroke-width="6" stroke-linecap="round"/>
  <polygon points="118,192 128,176 138,192" fill="#7df9ff" filter="url(#soft)"/>
</svg>
